<?xml version="1.0" encoding="UTF-8" standalone="no"?>
<!-- Created with Inkscape (http://www.inkscape.org/) -->

<svg
   xmlns:dc="http://purl.org/dc/elements/1.1/"
   xmlns:cc="http://creativecommons.org/ns#"
   xmlns:rdf="http://www.w3.org/1999/02/22-rdf-syntax-ns#"
   xmlns:svg="http://www.w3.org/2000/svg"
   xmlns="http://www.w3.org/2000/svg"
   xmlns:sodipodi="http://sodipodi.sourceforge.net/DTD/sodipodi-0.dtd"
   xmlns:inkscape="http://www.inkscape.org/namespaces/inkscape"
   width="288"
   height="96"
   id="svg2"
   version="1.1"
   inkscape:version="0.48.4 r9939"
   sodipodi:docname="agogo-running-left.svg"
   inkscape:export-filename="/home/johnlinp/coding/leisure/agogo-chase/images/agogo-running-left.png"
   inkscape:export-xdpi="90"
   inkscape:export-ydpi="90">
  <defs
     id="defs4" />
  <sodipodi:namedview
     id="base"
     pagecolor="#ffffff"
     bordercolor="#666666"
     borderopacity="1.0"
     inkscape:pageopacity="1"
     inkscape:pageshadow="2"
     inkscape:zoom="2.8"
     inkscape:cx="115.20249"
     inkscape:cy="56.969295"
     inkscape:document-units="px"
     inkscape:current-layer="layer1"
     showgrid="false"
     inkscape:window-width="1360"
     inkscape:window-height="744"
     inkscape:window-x="0"
     inkscape:window-y="24"
     inkscape:window-maximized="1" />
  <metadata
     id="metadata7">
    <rdf:RDF>
      <cc:Work
         rdf:about="">
        <dc:format>image/svg+xml</dc:format>
        <dc:type
           rdf:resource="http://purl.org/dc/dcmitype/StillImage" />
        <dc:title />
      </cc:Work>
    </rdf:RDF>
  </metadata>
  <g
     inkscape:groupmode="layer"
     id="layer3"
     inkscape:label="sticks"
     sodipodi:insensitive="true"
     style="display:none">
    <path
       style="fill:none;stroke:#000000;stroke-width:1px;stroke-linecap:butt;stroke-linejoin:miter;stroke-opacity:1;display:inline"
       d="m 96.5,-11.85714 0,127.5"
       id="path3104"
       inkscape:connector-curvature="0" />
    <path
       style="fill:none;stroke:#000000;stroke-width:1px;stroke-linecap:butt;stroke-linejoin:miter;stroke-opacity:1;display:inline"
       d="M 192.5,-10.785712 192.5,121"
       id="path3106"
       inkscape:connector-curvature="0" />
  </g>
  <g
     inkscape:groupmode="layer"
     id="layer2"
     inkscape:label="fills"
     transform="translate(0,48)">
    <path
       sodipodi:type="arc"
       style="fill:#a7a1a7;fill-opacity:0.26940637;stroke:none"
       id="path5056"
       sodipodi:cx="519.10712"
       sodipodi:cy="368.03571"
       sodipodi:rx="55.892857"
       sodipodi:ry="55.892857"
       d="m 574.99997,368.03571 c 0,30.86877 -25.02408,55.89285 -55.89285,55.89285 -30.86878,0 -55.89286,-25.02408 -55.89286,-55.89285 0,-30.86878 25.02408,-55.89286 55.89286,-55.89286 30.86877,0 55.89285,25.02408 55.89285,55.89286 z"
       transform="matrix(0.44087938,0,0,0.44087938,-193.79535,-169.92271)" />
    <path
       sodipodi:type="arc"
       style="fill:#a9a9ac;fill-opacity:0.36529685;stroke:none"
       id="path5056-3"
       sodipodi:cx="519.10712"
       sodipodi:cy="368.03571"
       sodipodi:rx="55.892857"
       sodipodi:ry="55.892857"
       d="m 574.99997,368.03571 c 0,30.86877 -25.02408,55.89285 -55.89285,55.89285 -30.86878,0 -55.89286,-25.02408 -55.89286,-55.89285 0,-30.86878 25.02408,-55.89286 55.89286,-55.89286 30.86877,0 55.89285,25.02408 55.89285,55.89286 z"
       transform="matrix(0.45255615,0,0,0.45255615,-174.13827,-151.43572)" />
    <path
       sodipodi:type="arc"
       style="fill:#d4aa00;fill-opacity:0.5148936;stroke:none"
       id="path5056-7"
       sodipodi:cx="519.10712"
       sodipodi:cy="368.03571"
       sodipodi:rx="55.892857"
       sodipodi:ry="55.892857"
       d="m 574.99997,368.03571 c 0,30.86877 -25.02408,55.89285 -55.89285,55.89285 -30.86878,0 -55.89286,-25.02408 -55.89286,-55.89285 0,-30.86878 25.02408,-55.89286 55.89286,-55.89286 30.86877,0 55.89285,25.02408 55.89285,55.89286 z"
       transform="matrix(0.23945522,0,0,0.23945522,-107.8685,-93.699875)" />
    <path
       sodipodi:type="arc"
       style="fill:#212222;fill-opacity:0.71489366;stroke:none"
       id="path5056-7-0"
       sodipodi:cx="519.10712"
       sodipodi:cy="368.03571"
       sodipodi:rx="55.892857"
       sodipodi:ry="55.892857"
       d="m 574.99997,368.03571 c 0,30.86877 -25.02408,55.89285 -55.89285,55.89285 -30.86878,0 -55.89286,-25.02408 -55.89286,-55.89285 0,-30.86878 25.02408,-55.89286 55.89286,-55.89286 30.86877,0 55.89285,25.02408 55.89285,55.89286 z"
       transform="matrix(0.3416269,0,0,0.34454609,-102.67086,-119.80049)" />
    <path
       sodipodi:type="arc"
       style="fill:#303331;fill-opacity:0.59574465;stroke:none"
       id="path5056-7-0-2"
       sodipodi:cx="519.10712"
       sodipodi:cy="368.03571"
       sodipodi:rx="55.892857"
       sodipodi:ry="55.892857"
       d="m 574.99997,368.03571 c 0,30.86877 -25.02408,55.89285 -55.89285,55.89285 -30.86878,0 -55.89286,-25.02408 -55.89286,-55.89285 0,-30.86878 25.02408,-55.89286 55.89286,-55.89286 30.86877,0 55.89285,25.02408 55.89285,55.89286 z"
       transform="matrix(0.16647547,0,0,0.16789799,-38.017574,-83.587825)" />
  </g>
  <g
     inkscape:groupmode="layer"
     id="layer1"
     inkscape:label="strokes"
     style="display:inline"
     transform="translate(0,48)">
    <path
       style="fill:none;stroke:#000000;stroke-width:0.5;stroke-linecap:butt;stroke-linejoin:miter;stroke-miterlimit:4;stroke-opacity:1;stroke-dasharray:none;display:inline"
       d="m 22.276677,-12.347939 c -2.680224,0 -5.638245,-11.903493 -1.069986,-12.48315 3.31827,-0.421039 4.696875,9.758507 3.328844,9.986511 -0.211866,2.118625 -5.526094,-10.01142 0.23777,-12.007588 5.580091,-1.932522 5.190003,13.393207 3.804384,12.007588 -1.463166,-0.487719 -4.308614,-15.425245 2.734409,-14.979767 6.772406,0.42837 2.615513,14.385331 2.615513,14.385331 -0.476207,2.142912 -5.228461,-12.652121 3.447718,-13.790895 8.673227,-1.138376 2.350223,12.988059 0.594435,13.790895 -1.898807,1.186763 -2.769341,-13.753094 4.042166,-12.602024 6.745658,1.139945 1.541193,14.141484 0.356654,12.483139 0,0 -3.345017,-10.765574 3.328845,-10.224281 7.098074,0.575699 3.959747,12.278545 -0.118897,13.553126"
       id="path3852"
       inkscape:connector-curvature="0"
       sodipodi:nodetypes="cscscscscscsc" />
    <path
       style="fill:none;stroke:#000000;stroke-width:0.5;stroke-linecap:butt;stroke-linejoin:miter;stroke-miterlimit:4;stroke-opacity:1;stroke-dasharray:none;display:inline"
       d="m 18.947844,-6.76026 c 0,0 -7.489883,-4.279923 -7.608768,4.2799347 -0.118896,8.559872 8.084307,1.5455376 8.084307,1.5455376 C 21.010646,-4.109312 8.3316714,-7.05623 9.7935385,2.7507089 11.118345,11.63815 19.821352,4.3510504 18.472293,4.8906764 20.99445,4.6384607 11.540356,-0.3975811 10.863524,6.9117556 c -0.735031,7.9378224 7.668282,4.0274554 6.776564,2.0210815 0.613477,0.2044931 -7.410909,-2.3910461 -5.231037,2.2588519 1.922662,4.166313 5.327801,2.087745 7.133229,-0.118891"
       id="path3854"
       inkscape:connector-curvature="0"
       sodipodi:nodetypes="cscscsccc" />
    <path
       style="fill:none;stroke:#000000;stroke-width:0.5;stroke-linecap:butt;stroke-linejoin:miter;stroke-miterlimit:4;stroke-opacity:1;stroke-dasharray:none;display:inline"
       d="m 47.005185,-9.137991 c 0,0 1.573151,-10.969336 8.678755,-4.755486 7.144119,6.24753 -5.434975,8.762882 -5.706576,7.133217 -2.724221,-2.724209 6.041285,-9.815104 6.538781,0.118897 -9.291388,13.3683471 -10.160142,-5.25317 0.713321,4.6366004 1.541802,7.1853519 -8.084319,3.5666083 -8.084319,3.5666083 -1.649972,-0.7149425 2.254736,-5.9732417 7.608779,2.021078 2.732489,4.0799878 -6.419908,1.66442 -6.419908,1.66442 -2.672308,0.00586 1.900986,-4.1247406 4.993256,-1.0699843 7.090403,7.0043606 -5.217394,4.1568929 -5.468795,3.685498 -3.68619,-0.8191516 6.208792,-2.6706478 7.370987,2.1399676 1.228207,5.083774 -5.870242,0.630678 -5.825461,0.832209"
       id="path3856"
       inkscape:connector-curvature="0"
       sodipodi:nodetypes="csccccscscsc" />
    <path
       style="fill:none;stroke:#000000;stroke-width:0.5;stroke-linecap:butt;stroke-linejoin:miter;stroke-miterlimit:4;stroke-opacity:1;stroke-dasharray:none;display:inline"
       d="m 23.108883,9.8839319 c 0,0 -2.496628,6.7765631 0.832217,7.9654341 3.328833,1.18887 8.440973,-5.706579 5.231025,-6.657677 -3.209948,-0.951096 -3.328833,7.014337 -0.594436,7.370998 2.734409,0.356661 5.468806,-8.322094 3.804384,-8.7976411 -1.664411,-0.4755486 -1.426641,7.1332221 0.951102,7.2521101 2.377743,0.118893 5.231025,-5.944354 2.853282,-6.419902 -2.377731,-0.475547 -1.307756,6.657676 1.307768,6.301014 2.615513,-0.356661 5.468795,-7.6087707 2.734397,-7.7276578 -2.734397,-0.118893 -1.545525,8.2032068 1.545538,6.6576748 3.091052,-1.545531 4.755474,-7.9654323 2.139962,-7.9654323 -2.615513,0 -1.783308,7.9654323 0.95109,8.0843213 2.734409,0.118886 5.231037,-8.9165313 2.139973,-8.3220956 -3.091063,0.5944346 0.95109,8.6787556 2.853294,6.8954486 1.902192,-1.783306 -0.475551,-3.923273 -0.475551,-3.923273"
       id="path3858"
       inkscape:connector-curvature="0" />
    <path
       style="fill:none;stroke:#000000;stroke-width:0.5;stroke-linecap:butt;stroke-linejoin:miter;stroke-miterlimit:4;stroke-opacity:1;stroke-dasharray:none;display:inline"
       d="m 23.227779,2.2751615 c 0,0 -4.993255,-0.7133228 -8.797639,-0.2377743 C 10.625743,2.5129358 4.2058464,4.7717904 4.2058464,4.7717904"
       id="path3862"
       inkscape:connector-curvature="0" />
    <path
       style="fill:none;stroke:#000000;stroke-width:0.5;stroke-linecap:butt;stroke-linejoin:miter;stroke-miterlimit:4;stroke-opacity:1;stroke-dasharray:none;display:inline"
       d="m 21.563357,5.1284507 c 0,0 -4.755486,0.7133217 -8.322089,1.902192 C 9.6746525,8.219513 6.5835893,10.835029 6.5835893,10.835029"
       id="path3864"
       inkscape:connector-curvature="0" />
    <path
       style="fill:none;stroke:#000000;stroke-width:0.5;stroke-linecap:butt;stroke-linejoin:miter;stroke-miterlimit:4;stroke-opacity:1;stroke-dasharray:none;display:inline"
       d="m 23.108883,8.219513 c 0,0 -5.34991,1.5455329 -7.608768,3.091065 -2.258847,1.54553 -5.7065765,4.636596 -5.7065765,4.636596"
       id="path3866"
       inkscape:connector-curvature="0" />
    <path
       style="fill:none;stroke:#000000;stroke-width:0.5;stroke-linecap:butt;stroke-linejoin:miter;stroke-miterlimit:4;stroke-opacity:1;stroke-dasharray:none;display:inline"
       d="m 45.459648,-1.0536725 c 0,0 4.279934,-1.0699866 7.370998,-1.1888714 3.091063,-0.1188966 6.301012,0.3566544 6.301012,0.3566544"
       id="path3870"
       inkscape:connector-curvature="0" />
    <path
       style="fill:none;stroke:#000000;stroke-width:0.5;stroke-linecap:butt;stroke-linejoin:miter;stroke-miterlimit:4;stroke-opacity:1;stroke-dasharray:none;display:inline"
       d="m 44.627442,2.631823 c 0,0 5.349922,-0.2377755 8.79764,0.3566614 3.447729,0.5944334 7.252113,1.6644177 7.252113,1.6644177"
       id="path3872"
       inkscape:connector-curvature="0" />
    <path
       style="fill:none;stroke:#000000;stroke-width:0.5;stroke-linecap:butt;stroke-linejoin:miter;stroke-miterlimit:4;stroke-opacity:1;stroke-dasharray:none;display:inline"
       d="m 44.984108,5.6039993 c 0,0 7.014333,0.2377731 9.392076,1.0699831 2.377742,0.8322089 7.846537,3.5666106 7.846537,3.5666106"
       id="path3874"
       inkscape:connector-curvature="0" />
    <path
       style="fill:none;stroke:#000000;stroke-width:0.5;stroke-linecap:butt;stroke-linejoin:miter;stroke-miterlimit:4;stroke-opacity:1;stroke-dasharray:none;display:inline"
       d="m 31.074317,2.631823 c 0,0 -1.069975,4.0421594 1.783307,3.3288377 2.853294,-0.713324 2.853294,-4.398822 2.615513,-5.7065771 -0.23777,-1.3077561 -0.23777,-1.3077561 -0.23777,-1.3077561"
       id="path3880"
       inkscape:connector-curvature="0" />
    <path
       style="fill:none;stroke:#000000;stroke-width:0.5;stroke-linecap:butt;stroke-linejoin:miter;stroke-miterlimit:4;stroke-opacity:1;stroke-dasharray:none;display:inline"
       d="m 40.109738,0.610738 c 0,0 1.069986,4.1610524 -1.426641,4.6365987 -2.49664,0.4755485 -3.189561,-4.9380382 -3.42733,-6.1269095"
       id="path3882"
       inkscape:connector-curvature="0"
       sodipodi:nodetypes="csc" />
    <path
       style="fill:#000000;fill-opacity:1;stroke:#000000;stroke-width:0.5;stroke-linecap:butt;stroke-linejoin:miter;stroke-miterlimit:4;stroke-opacity:1;stroke-dasharray:none;display:inline"
       d="m 29.55665,-1.4526252 c 0,0 -2.56401,0.3783071 -3.236543,-1.9755464 -0.672521,-2.3538414 0.378296,-3.7829534 0.378296,-3.7829534 0,0 3.152473,-0.672533 3.782965,2.143673 0.630493,2.8162072 -0.924718,3.6148268 -0.924718,3.6148268 z"
       id="path3884"
       inkscape:connector-curvature="0" />
    <path
       style="fill:#000000;fill-opacity:1;stroke:#000000;stroke-width:0.5;stroke-linecap:butt;stroke-linejoin:miter;stroke-miterlimit:4;stroke-opacity:1;stroke-dasharray:none;display:inline"
       d="m 37.290709,-9.102613 c 0,0 -1.387095,0.420336 -0.504406,3.488739 0.882701,3.0684033 3.236543,2.2697714 4.119232,2.0175754 0.882689,-0.252197 -0.504394,-3.8670234 -0.504394,-3.8670234 0,0 -0.336266,-1.68132 -1.63928,-1.68132 -1.303025,0 -1.471152,0.04204 -1.471152,0.04204 z"
       id="path3886"
       inkscape:connector-curvature="0" />
    <path
       style="fill:none;stroke:#000000;stroke-width:0.5;stroke-linecap:butt;stroke-linejoin:miter;stroke-miterlimit:4;stroke-opacity:1;stroke-dasharray:none"
       d="m 59.998112,-0.214479 c 0,0 1.010153,-6.818529 4.293148,-6.313453 3.282996,0.505076 3.282996,5.934646 0.883884,6.439722 -2.399112,0.505077 -1.894036,-9.596449 3.914341,-10.101525 5.808377,-0.505076 3.409265,11.869292 1.515229,11.995561 -1.894036,0.12627 -4.293149,-10.73287 2.020305,-9.722718 6.313453,1.010153 4.671955,8.586297 3.409265,8.712566 -1.262691,0.126269 -2.651651,-7.323606 2.904188,-7.323606 5.555839,0 2.525382,8.712566 1.38896,9.343911 -1.136422,0.631345 -4.419417,-10.480333 4.924494,-2.904189 9.343911,7.576144 -2.77792,9.47018 -4.040611,6.439723 -1.26269,-3.030458 5.303301,-4.04061 5.555839,2.399112 0.252538,6.439723 -4.419417,4.545687 -5.177031,2.399112 -0.757615,-2.146574 9.722718,0.505077 6.69226,4.545687 -3.030457,4.04061 -6.565991,3.914341 -7.197337,0.505076 -0.631345,-3.409265 9.26776,-1.06251 7.954952,2.146574 -1.136422,2.77792 -1.894036,2.020305 -1.894036,2.020305"
       id="path3157"
       inkscape:connector-curvature="0"
       sodipodi:nodetypes="csssssssssssssssc" />
    <path
       style="fill:none;stroke:#000000;stroke-width:0.5;stroke-linecap:butt;stroke-linejoin:miter;stroke-miterlimit:4;stroke-opacity:1;stroke-dasharray:none"
       d="m 33.88072,18.97842 c 0,0 -2.399112,7.954951 1.262691,9.217642 3.661803,1.26269 8.333758,-6.944799 4.166879,-6.81853 -4.166879,0.126269 -3.535534,6.565991 0.126269,8.08122 3.661803,1.515229 7.828682,-5.050763 5.050763,-6.313453 -2.77792,-1.262691 -5.682108,7.449875 2.272843,8.460027 7.954951,1.010153 9.343911,-9.47018 5.050763,-9.091373 -4.293149,0.378808 -2.904189,9.470181 1.894036,9.343911 4.798224,-0.126269 10.985409,-8.965103 4.798224,-8.838834 -6.187184,0.126269 -1.767767,8.08122 3.282996,7.576144 5.050763,-0.505076 9.343911,-8.838835 3.661803,-9.343911 -5.682108,-0.505076 -3.156727,10.732871 3.535534,9.722718 6.69226,-1.010153 8.586296,-10.606602 4.166879,-9.975256 -4.419417,0.631345 0.505076,12.248099 5.303301,8.965103 4.798225,-3.282995 2.399112,-10.606601 -0.505076,-8.838834 -2.904189,1.767767 2.65165,6.565991 4.293148,4.04061 1.641498,-2.525381 2.020305,-3.788072 2.020305,-3.788072"
       id="path3927"
       inkscape:connector-curvature="0" />
    <path
       style="fill:none;stroke:#000000;stroke-width:0.5;stroke-linecap:butt;stroke-linejoin:miter;stroke-opacity:1;stroke-miterlimit:4;stroke-dasharray:none"
       d="m 30.178571,71.714286 c 0,0 -5.535714,2.5 -6.428571,4.107143 -0.892857,1.607143 5.357143,-1.607143 5.357143,-1.607143 0,0 -4.642857,2.142857 -4.464286,3.214286 0.178571,1.071428 5.178571,-1.785715 5.178571,-1.785715 0,0 -4.642857,2.321429 -3.571428,3.214286 1.071428,0.892857 5.357143,-3.035714 5.357143,-3.035714"
       id="path3929"
       inkscape:connector-curvature="0"
       transform="translate(0,-48)" />
    <path
       style="fill:none;stroke:#000000;stroke-width:0.5;stroke-linecap:butt;stroke-linejoin:miter;stroke-miterlimit:4;stroke-opacity:1;stroke-dasharray:none"
       d="m 84.464285,72.785714 c 0,0 4.688948,2.630731 5,4.642858 0.166339,1.076015 -4.294277,-2.987861 -4.642857,-2.857143 0,0 5.296966,3.766295 3.928571,4.464285 C 88.03411,79.400874 84.329411,75.781513 84.285714,76 c 0,0 4.821428,3.214286 3.928571,4.107143 C 87.321428,81 83.392857,77.428572 83.392857,77.428572"
       id="path3931"
       inkscape:connector-curvature="0"
       transform="translate(0,-48)"
       sodipodi:nodetypes="cscscsc" />
    <path
       sodipodi:type="arc"
       style="fill:#a7a1a7;fill-opacity:0.26940637;stroke:none"
       id="path5056-75"
       sodipodi:cx="519.10712"
       sodipodi:cy="368.03571"
       sodipodi:rx="55.892857"
       sodipodi:ry="55.892857"
       d="m 574.99997,368.03571 c 0,30.86877 -25.02408,55.89285 -55.89285,55.89285 -30.86878,0 -55.89286,-25.02408 -55.89286,-55.89285 0,-30.86878 25.02408,-55.89286 55.89286,-55.89286 30.86877,0 55.89285,25.02408 55.89285,55.89286 z"
       transform="matrix(0.44087938,0,0,0.44087938,-97.794923,-175.92271)" />
    <path
       sodipodi:type="arc"
       style="fill:#a9a9ac;fill-opacity:0.36529685;stroke:none"
       id="path5056-3-4"
       sodipodi:cx="519.10712"
       sodipodi:cy="368.03571"
       sodipodi:rx="55.892857"
       sodipodi:ry="55.892857"
       d="m 574.99997,368.03571 c 0,30.86877 -25.02408,55.89285 -55.89285,55.89285 -30.86878,0 -55.89286,-25.02408 -55.89286,-55.89285 0,-30.86878 25.02408,-55.89286 55.89286,-55.89286 30.86877,0 55.89285,25.02408 55.89285,55.89286 z"
       transform="matrix(0.45255615,0,0,0.45255615,-78.137843,-157.43572)" />
    <path
       sodipodi:type="arc"
       style="fill:#d4aa00;fill-opacity:0.5148936;stroke:none"
       id="path5056-7-5"
       sodipodi:cx="519.10712"
       sodipodi:cy="368.03571"
       sodipodi:rx="55.892857"
       sodipodi:ry="55.892857"
       d="m 574.99997,368.03571 c 0,30.86877 -25.02408,55.89285 -55.89285,55.89285 -30.86878,0 -55.89286,-25.02408 -55.89286,-55.89285 0,-30.86878 25.02408,-55.89286 55.89286,-55.89286 30.86877,0 55.89285,25.02408 55.89285,55.89286 z"
       transform="matrix(0.23945522,0,0,0.23945522,-11.868073,-99.69987)" />
    <path
       sodipodi:type="arc"
       style="fill:#212222;fill-opacity:0.71489366;stroke:none"
       id="path5056-7-0-1"
       sodipodi:cx="519.10712"
       sodipodi:cy="368.03571"
       sodipodi:rx="55.892857"
       sodipodi:ry="55.892857"
       d="m 574.99997,368.03571 c 0,30.86877 -25.02408,55.89285 -55.89285,55.89285 -30.86878,0 -55.89286,-25.02408 -55.89286,-55.89285 0,-30.86878 25.02408,-55.89286 55.89286,-55.89286 30.86877,0 55.89285,25.02408 55.89285,55.89286 z"
       transform="matrix(0.3416269,0,0,0.34454609,-6.6704326,-125.80049)" />
    <path
       sodipodi:type="arc"
       style="fill:#303331;fill-opacity:0.59574465;stroke:none"
       id="path5056-7-0-2-5"
       sodipodi:cx="519.10712"
       sodipodi:cy="368.03571"
       sodipodi:rx="55.892857"
       sodipodi:ry="55.892857"
       d="m 574.99997,368.03571 c 0,30.86877 -25.02408,55.89285 -55.89285,55.89285 -30.86878,0 -55.89286,-25.02408 -55.89286,-55.89285 0,-30.86878 25.02408,-55.89286 55.89286,-55.89286 30.86877,0 55.89285,25.02408 55.89285,55.89286 z"
       transform="matrix(0.16647547,0,0,0.16789799,57.98285,-89.587821)" />
    <path
       style="fill:none;stroke:#000000;stroke-width:0.5;stroke-linecap:butt;stroke-linejoin:miter;stroke-miterlimit:4;stroke-opacity:1;stroke-dasharray:none;display:inline"
       d="m 118.2771,-18.347935 c -2.68022,0 -5.63824,-11.903493 -1.06998,-12.48315 3.31827,-0.421039 4.69687,9.758507 3.32884,9.986511 -0.21187,2.118625 -5.52609,-10.01142 0.23777,-12.007588 5.58009,-1.932522 5.19,13.393207 3.80438,12.007588 -1.46316,-0.487719 -4.30861,-15.425245 2.73441,-14.979767 6.77241,0.42837 2.61552,14.385331 2.61552,14.385331 -0.47621,2.142912 -5.22847,-12.652121 3.44771,-13.790895 8.67323,-1.138376 2.35023,12.988059 0.59444,13.790895 -1.89881,1.186763 -2.76934,-13.753094 4.04216,-12.602024 6.74566,1.139945 1.5412,14.141484 0.35666,12.483139 0,0 -3.34502,-10.765574 3.32884,-10.224281 7.09808,0.575699 3.95975,12.278545 -0.11889,13.553126"
       id="path3852-6"
       inkscape:connector-curvature="0"
       sodipodi:nodetypes="cscscscscscsc" />
    <path
       style="fill:none;stroke:#000000;stroke-width:0.5;stroke-linecap:butt;stroke-linejoin:miter;stroke-miterlimit:4;stroke-opacity:1;stroke-dasharray:none;display:inline"
       d="m 114.94827,-12.760256 c 0,0 -7.48988,-4.279923 -7.60877,4.2799353 -0.1189,8.559872 8.08431,1.545538 8.08431,1.545538 1.58726,-3.1745253 -11.09171,-6.1214433 -9.62985,3.685496 1.32481,8.8874407 10.02782,1.600342 8.67876,2.139968 2.52215,-0.252216 -6.93194,-5.288258 -7.60877,2.021079 -0.73503,7.9378217 7.66828,4.0274547 6.77656,2.021081 0.61348,0.204493 -7.41091,-2.391046 -5.23103,2.2588517 1.92266,4.166313 5.3278,2.087745 7.13322,-0.118891"
       id="path3854-1"
       inkscape:connector-curvature="0"
       sodipodi:nodetypes="cscscsccc" />
    <path
       style="fill:none;stroke:#000000;stroke-width:0.5;stroke-linecap:butt;stroke-linejoin:miter;stroke-miterlimit:4;stroke-opacity:1;stroke-dasharray:none;display:inline"
       d="m 143.00561,-15.137987 c 0,0 1.57315,-10.969336 8.67875,-4.755486 7.14412,6.24753 -5.43497,8.762882 -5.70657,7.133217 -2.72422,-2.724209 6.04128,-9.815104 6.53878,0.118897 -9.29139,13.3683473 -10.16014,-5.25317 0.71332,4.6366013 1.5418,7.185352 -8.08432,3.566608 -8.08432,3.566608 -1.64997,-0.714943 2.25474,-5.9732423 7.60878,2.021078 2.73249,4.079988 -6.41991,1.66442 -6.41991,1.66442 -2.67231,0.0059 1.90099,-4.124741 4.99326,-1.069984 7.0904,7.0043597 -5.2174,4.156893 -5.4688,3.685498 -3.68619,-0.819152 6.2088,-2.670648 7.37099,2.1399667 1.22821,5.083774 -5.87024,0.630678 -5.82546,0.832209"
       id="path3856-9"
       inkscape:connector-curvature="0"
       sodipodi:nodetypes="csccccscscsc" />
    <path
       style="fill:none;stroke:#000000;stroke-width:0.5;stroke-linecap:butt;stroke-linejoin:miter;stroke-miterlimit:4;stroke-opacity:1;stroke-dasharray:none;display:inline"
       d="m 119.10931,3.8839363 c 0,0 -2.49663,6.7765627 0.83221,7.9654337 3.32884,1.18887 8.44098,-5.706579 5.23103,-6.657677 -3.20995,-0.951096 -3.32883,7.014337 -0.59444,7.370998 2.73441,0.356661 5.46881,-8.322094 3.80439,-8.7976407 -1.66441,-0.475548 -1.42664,7.1332217 0.9511,7.2521097 2.37774,0.118893 5.23102,-5.944354 2.85328,-6.419902 -2.37773,-0.475547 -1.30775,6.657676 1.30777,6.301014 2.61551,-0.356661 5.46879,-7.6087697 2.7344,-7.7276577 -2.7344,-0.118893 -1.54553,8.2032067 1.54553,6.6576747 3.09106,-1.545531 4.75548,-7.9654317 2.13997,-7.9654317 -2.61552,0 -1.78331,7.9654317 0.95109,8.0843207 2.73441,0.118886 5.23103,-8.9165307 2.13997,-8.3220947 -3.09106,0.594434 0.95109,8.6787547 2.85329,6.8954477 1.9022,-1.783306 -0.47555,-3.923273 -0.47555,-3.923273"
       id="path3858-3"
       inkscape:connector-curvature="0" />
    <path
       style="fill:none;stroke:#000000;stroke-width:0.5;stroke-linecap:butt;stroke-linejoin:miter;stroke-miterlimit:4;stroke-opacity:1;stroke-dasharray:none;display:inline"
       d="m 119.2282,-3.7248337 c 0,0 -4.99325,-0.713323 -8.79764,-0.237775 -3.80439,0.475549 -10.22429,2.734404 -10.22429,2.734404"
       id="path3862-3"
       inkscape:connector-curvature="0" />
    <path
       style="fill:none;stroke:#000000;stroke-width:0.5;stroke-linecap:butt;stroke-linejoin:miter;stroke-miterlimit:4;stroke-opacity:1;stroke-dasharray:none;display:inline"
       d="m 117.56378,-0.8715447 c 0,0 -4.75548,0.713322 -8.32209,1.902192 -3.56661,1.18887 -6.65768,3.8043857 -6.65768,3.8043857"
       id="path3864-8"
       inkscape:connector-curvature="0" />
    <path
       style="fill:none;stroke:#000000;stroke-width:0.5;stroke-linecap:butt;stroke-linejoin:miter;stroke-miterlimit:4;stroke-opacity:1;stroke-dasharray:none;display:inline"
       d="m 119.10931,2.2195173 c 0,0 -5.34991,1.545533 -7.60877,3.0910647 -2.25885,1.54553 -5.70658,4.636596 -5.70658,4.636596"
       id="path3866-4"
       inkscape:connector-curvature="0" />
    <path
       style="fill:none;stroke:#000000;stroke-width:0.5;stroke-linecap:butt;stroke-linejoin:miter;stroke-miterlimit:4;stroke-opacity:1;stroke-dasharray:none;display:inline"
       d="m 141.46007,-7.0536677 c 0,0 4.27994,-1.069987 7.371,-1.188872 3.09106,-0.118896 6.30101,0.356655 6.30101,0.356655"
       id="path3870-4"
       inkscape:connector-curvature="0" />
    <path
       style="fill:none;stroke:#000000;stroke-width:0.5;stroke-linecap:butt;stroke-linejoin:miter;stroke-miterlimit:4;stroke-opacity:1;stroke-dasharray:none;display:inline"
       d="m 140.62787,-3.3681727 c 0,0 5.34992,-0.237775 8.79764,0.356662 3.44773,0.594433 7.25211,1.664417 7.25211,1.664417"
       id="path3872-5"
       inkscape:connector-curvature="0" />
    <path
       style="fill:none;stroke:#000000;stroke-width:0.5;stroke-linecap:butt;stroke-linejoin:miter;stroke-miterlimit:4;stroke-opacity:1;stroke-dasharray:none;display:inline"
       d="m 140.98453,-0.3959957 c 0,0 7.01434,0.237773 9.39208,1.069983 2.37774,0.832209 7.84654,3.5666097 7.84654,3.5666097"
       id="path3874-9"
       inkscape:connector-curvature="0" />
    <path
       style="fill:none;stroke:#000000;stroke-width:0.5;stroke-linecap:butt;stroke-linejoin:miter;stroke-miterlimit:4;stroke-opacity:1;stroke-dasharray:none;display:inline"
       d="m 127.07474,-3.3681727 c 0,0 -1.06997,4.04216 1.78331,3.328838 2.85329,-0.713324 2.85329,-4.398822 2.61551,-5.706577 -0.23777,-1.307756 -0.23777,-1.307756 -0.23777,-1.307756"
       id="path3880-9"
       inkscape:connector-curvature="0" />
    <path
       style="fill:none;stroke:#000000;stroke-width:0.5;stroke-linecap:butt;stroke-linejoin:miter;stroke-miterlimit:4;stroke-opacity:1;stroke-dasharray:none;display:inline"
       d="m 136.11016,-5.3892577 c 0,0 1.06999,4.161053 -1.42664,4.636599 -2.49664,0.475548 -3.18956,-4.938038 -3.42733,-6.12691"
       id="path3882-4"
       inkscape:connector-curvature="0"
       sodipodi:nodetypes="csc" />
    <path
       style="fill:#000000;fill-opacity:1;stroke:#000000;stroke-width:0.5;stroke-linecap:butt;stroke-linejoin:miter;stroke-miterlimit:4;stroke-opacity:1;stroke-dasharray:none;display:inline"
       d="m 125.55707,-7.4526207 c 0,0 -2.56401,0.378307 -3.23654,-1.975546 -0.67252,-2.3538423 0.3783,-3.7829543 0.3783,-3.7829543 0,0 3.15247,-0.672533 3.78296,2.143673 0.6305,2.8162073 -0.92472,3.6148273 -0.92472,3.6148273 z"
       id="path3884-2"
       inkscape:connector-curvature="0" />
    <path
       style="fill:#000000;fill-opacity:1;stroke:#000000;stroke-width:0.5;stroke-linecap:butt;stroke-linejoin:miter;stroke-miterlimit:4;stroke-opacity:1;stroke-dasharray:none;display:inline"
       d="m 133.29113,-15.102609 c 0,0 -1.38709,0.420336 -0.5044,3.488739 0.8827,3.0684043 3.23654,2.2697723 4.11923,2.0175763 0.88269,-0.252197 -0.50439,-3.8670243 -0.50439,-3.8670243 0,0 -0.33627,-1.68132 -1.63928,-1.68132 -1.30303,0 -1.47116,0.04204 -1.47116,0.04204 z"
       id="path3886-8"
       inkscape:connector-curvature="0" />
    <path
       style="fill:none;stroke:#000000;stroke-width:0.5;stroke-linecap:butt;stroke-linejoin:miter;stroke-miterlimit:4;stroke-opacity:1;stroke-dasharray:none;display:inline"
       d="m 155.99854,-6.2144747 c 0,0 1.01015,-6.8185293 4.29314,-6.3134533 3.283,0.505076 3.283,5.9346463 0.88389,6.4397223 -2.39911,0.505077 -1.89404,-9.5964493 3.91434,-10.1015253 5.80838,-0.505076 3.40926,11.8692923 1.51523,11.9955613 -1.89404,0.12627 -4.29315,-10.7328703 2.0203,-9.7227183 6.31346,1.010153 4.67196,8.5862973 3.40927,8.7125663 -1.26269,0.126269 -2.65165,-7.3236063 2.90419,-7.3236063 5.55584,0 2.52538,8.7125663 1.38896,9.3439113 -1.13643,0.631345 -4.41942,-10.4803333 4.92449,-2.904189 9.34391,7.576144 -2.77792,9.47018 -4.04061,6.439723 -1.26269,-3.030458 5.3033,-4.04061 5.55584,2.399112 0.25254,6.4397227 -4.41942,4.5456867 -5.17703,2.3991117 -0.75762,-2.1465737 9.72272,0.505077 6.69226,4.545687 -3.03046,4.04061 -6.56599,3.914341 -7.19734,0.505076 -0.63134,-3.409265 9.26776,-1.06251 7.95495,2.146574 -1.13642,2.77792 -1.89403,2.020305 -1.89403,2.020305"
       id="path3157-4"
       inkscape:connector-curvature="0"
       sodipodi:nodetypes="csssssssssssssssc" />
    <path
       style="fill:none;stroke:#000000;stroke-width:0.5;stroke-linecap:butt;stroke-linejoin:miter;stroke-miterlimit:4;stroke-opacity:1;stroke-dasharray:none;display:inline"
       d="m 129.88114,12.978424 c 0,0 -2.39911,7.954951 1.2627,9.217642 3.6618,1.26269 8.33375,-6.944799 4.16687,-6.81853 -4.16687,0.126269 -3.53553,6.565991 0.12627,8.08122 3.66181,1.515229 7.82869,-5.050763 5.05077,-6.313453 -2.77792,-1.262691 -5.68211,7.449875 2.27284,8.460027 7.95495,1.010153 9.34391,-9.47018 5.05076,-9.091373 -4.29315,0.378808 -2.90419,9.470181 1.89404,9.343911 4.79822,-0.126269 10.98541,-8.965103 4.79822,-8.838834 -6.18718,0.126269 -1.76776,8.08122 3.283,7.576144 5.05076,-0.505076 9.34391,-8.838835 3.6618,-9.343911 -5.68211,-0.505076 -3.15673,10.732871 3.53554,9.722718 6.69226,-1.010153 8.58629,-10.606602 4.16687,-9.975256 -4.41941,0.631345 0.50508,12.248099 5.30331,8.965103 4.79822,-3.282995 2.39911,-10.606601 -0.50508,-8.838834 -2.90419,1.767767 2.65165,6.565991 4.29315,4.04061 1.6415,-2.525381 2.0203,-3.788072 2.0203,-3.788072"
       id="path3927-7"
       inkscape:connector-curvature="0" />
    <path
       style="fill:none;stroke:#000000;stroke-width:0.5;stroke-linecap:butt;stroke-linejoin:miter;stroke-miterlimit:4;stroke-opacity:1;stroke-dasharray:none;display:inline"
       d="m 130.10171,23.908962 c 0,0 -4.50619,4.072896 -4.86488,5.876073 -0.35868,1.803175 4.60917,-3.168199 4.60917,-3.168199 0,0 -3.76529,3.459852 -3.26766,4.425367 0.49762,0.965513 4.38454,-3.283617 4.38454,-3.283617 0,0 -3.71068,3.629869 -2.41757,4.152362 1.29312,0.52249 4.17237,-4.528352 4.17237,-4.528352"
       id="path3929-0"
       inkscape:connector-curvature="0" />
    <path
       style="fill:none;stroke:#000000;stroke-width:0.5;stroke-linecap:butt;stroke-linejoin:miter;stroke-miterlimit:4;stroke-opacity:1;stroke-dasharray:none;display:inline"
       d="m 177.99628,24.097271 c 0,0 3.22375,4.30284 2.69416,6.268784 -0.28321,1.051319 -2.71834,-4.469764 -3.09,-4.491248 0,0 3.32037,5.587308 1.78657,5.672007 -0.80242,0.04431 -2.72609,-4.764431 -2.85444,-4.582303 0,0 3.10881,4.890101 1.93106,5.345398 -1.17775,0.455296 -3.32555,-4.400187 -3.32555,-4.400187"
       id="path3931-7"
       inkscape:connector-curvature="0"
       sodipodi:nodetypes="cscscsc" />
    <path
       sodipodi:type="arc"
       style="fill:#a7a1a7;fill-opacity:0.26940637;stroke:none"
       id="path5056-9"
       sodipodi:cx="519.10712"
       sodipodi:cy="368.03571"
       sodipodi:rx="55.892857"
       sodipodi:ry="55.892857"
       d="m 574.99997,368.03571 c 0,30.86877 -25.02408,55.89285 -55.89285,55.89285 -30.86878,0 -55.89286,-25.02408 -55.89286,-55.89285 0,-30.86878 25.02408,-55.89286 55.89286,-55.89286 30.86877,0 55.89285,25.02408 55.89285,55.89286 z"
       transform="matrix(0.44087938,0,0,0.44087938,-1.7949226,-181.92271)" />
    <path
       sodipodi:type="arc"
       style="fill:#a9a9ac;fill-opacity:0.36529685;stroke:none"
       id="path5056-3-1"
       sodipodi:cx="519.10712"
       sodipodi:cy="368.03571"
       sodipodi:rx="55.892857"
       sodipodi:ry="55.892857"
       d="m 574.99997,368.03571 c 0,30.86877 -25.02408,55.89285 -55.89285,55.89285 -30.86878,0 -55.89286,-25.02408 -55.89286,-55.89285 0,-30.86878 25.02408,-55.89286 55.89286,-55.89286 30.86877,0 55.89285,25.02408 55.89285,55.89286 z"
       transform="matrix(0.45255615,0,0,0.45255615,17.862157,-163.43572)" />
    <path
       sodipodi:type="arc"
       style="fill:#d4aa00;fill-opacity:0.5148936;stroke:none"
       id="path5056-7-58"
       sodipodi:cx="519.10712"
       sodipodi:cy="368.03571"
       sodipodi:rx="55.892857"
       sodipodi:ry="55.892857"
       d="m 574.99997,368.03571 c 0,30.86877 -25.02408,55.89285 -55.89285,55.89285 -30.86878,0 -55.89286,-25.02408 -55.89286,-55.89285 0,-30.86878 25.02408,-55.89286 55.89286,-55.89286 30.86877,0 55.89285,25.02408 55.89285,55.89286 z"
       transform="matrix(0.23945522,0,0,0.23945522,84.131927,-105.69987)" />
    <path
       sodipodi:type="arc"
       style="fill:#212222;fill-opacity:0.71489366;stroke:none"
       id="path5056-7-0-3"
       sodipodi:cx="519.10712"
       sodipodi:cy="368.03571"
       sodipodi:rx="55.892857"
       sodipodi:ry="55.892857"
       d="m 574.99997,368.03571 c 0,30.86877 -25.02408,55.89285 -55.89285,55.89285 -30.86878,0 -55.89286,-25.02408 -55.89286,-55.89285 0,-30.86878 25.02408,-55.89286 55.89286,-55.89286 30.86877,0 55.89285,25.02408 55.89285,55.89286 z"
       transform="matrix(0.3416269,0,0,0.34454609,89.329567,-131.80049)" />
    <path
       sodipodi:type="arc"
       style="fill:#303331;fill-opacity:0.59574465;stroke:none"
       id="path5056-7-0-2-6"
       sodipodi:cx="519.10712"
       sodipodi:cy="368.03571"
       sodipodi:rx="55.892857"
       sodipodi:ry="55.892857"
       d="m 574.99997,368.03571 c 0,30.86877 -25.02408,55.89285 -55.89285,55.89285 -30.86878,0 -55.89286,-25.02408 -55.89286,-55.89285 0,-30.86878 25.02408,-55.89286 55.89286,-55.89286 30.86877,0 55.89285,25.02408 55.89285,55.89286 z"
       transform="matrix(0.16647547,0,0,0.16789799,153.98285,-95.587821)" />
    <path
       style="fill:none;stroke:#000000;stroke-width:0.5;stroke-linecap:butt;stroke-linejoin:miter;stroke-miterlimit:4;stroke-opacity:1;stroke-dasharray:none;display:inline"
       d="m 214.2771,-24.347935 c -2.68022,0 -5.63824,-11.903493 -1.06998,-12.48315 3.31827,-0.421039 4.69687,9.758507 3.32884,9.986511 -0.21187,2.118625 -5.52609,-10.01142 0.23777,-12.007588 5.58009,-1.932522 5.19,13.393207 3.80438,12.007588 -1.46316,-0.487719 -4.30861,-15.425245 2.73441,-14.979767 6.77241,0.42837 2.61552,14.385331 2.61552,14.385331 -0.47621,2.142912 -5.22847,-12.652121 3.44771,-13.790895 8.67323,-1.138376 2.35023,12.988059 0.59444,13.790895 -1.89881,1.186763 -2.76934,-13.753094 4.04216,-12.602024 6.74566,1.139945 1.5412,14.141484 0.35666,12.483139 0,0 -3.34502,-10.765574 3.32884,-10.224281 7.09808,0.575699 3.95975,12.278545 -0.11889,13.553126"
       id="path3852-7"
       inkscape:connector-curvature="0"
       sodipodi:nodetypes="cscscscscscsc" />
    <path
       style="fill:none;stroke:#000000;stroke-width:0.5;stroke-linecap:butt;stroke-linejoin:miter;stroke-miterlimit:4;stroke-opacity:1;stroke-dasharray:none;display:inline"
       d="m 210.94827,-18.760256 c 0,0 -7.48988,-4.279923 -7.60877,4.279935 -0.1189,8.5598723 8.08431,1.545538 8.08431,1.545538 1.58726,-3.174525 -11.09171,-6.121443 -9.62985,3.6854963 1.32481,8.8874407 10.02782,1.600342 8.67876,2.139968 2.52215,-0.252216 -6.93194,-5.2882583 -7.60877,2.021079 -0.73503,7.9378217 7.66828,4.0274547 6.77656,2.021081 0.61348,0.204493 -7.41091,-2.391046 -5.23103,2.2588517 1.92266,4.166313 5.3278,2.087745 7.13322,-0.118891"
       id="path3854-2"
       inkscape:connector-curvature="0"
       sodipodi:nodetypes="cscscsccc" />
    <path
       style="fill:none;stroke:#000000;stroke-width:0.5;stroke-linecap:butt;stroke-linejoin:miter;stroke-miterlimit:4;stroke-opacity:1;stroke-dasharray:none;display:inline"
       d="m 239.00561,-21.137987 c 0,0 1.57315,-10.969336 8.67875,-4.755486 7.14412,6.24753 -5.43497,8.762882 -5.70657,7.133217 -2.72422,-2.724209 6.04128,-9.815104 6.53878,0.118897 -9.29139,13.3683473 -10.16014,-5.25317 0.71332,4.636601 1.5418,7.1853523 -8.08432,3.566608 -8.08432,3.566608 -1.64997,-0.714943 2.25474,-5.973242 7.60878,2.0210783 2.73249,4.079988 -6.41991,1.66442 -6.41991,1.66442 -2.67231,0.0059 1.90099,-4.1247413 4.99326,-1.069984 7.0904,7.0043597 -5.2174,4.156893 -5.4688,3.685498 -3.68619,-0.819152 6.2088,-2.670648 7.37099,2.1399667 1.22821,5.083774 -5.87024,0.630678 -5.82546,0.832209"
       id="path3856-1"
       inkscape:connector-curvature="0"
       sodipodi:nodetypes="csccccscscsc" />
    <path
       style="fill:none;stroke:#000000;stroke-width:0.5;stroke-linecap:butt;stroke-linejoin:miter;stroke-miterlimit:4;stroke-opacity:1;stroke-dasharray:none;display:inline"
       d="m 215.10931,-2.1160637 c 0,0 -2.49663,6.7765627 0.83221,7.9654337 3.32884,1.18887 8.44098,-5.706579 5.23103,-6.657677 -3.20995,-0.951096 -3.32883,7.014337 -0.59444,7.370998 2.73441,0.356661 5.46881,-8.322094 3.80439,-8.7976407 -1.66441,-0.475548 -1.42664,7.1332217 0.9511,7.2521097 2.37774,0.118893 5.23102,-5.944354 2.85328,-6.419902 -2.37773,-0.475547 -1.30775,6.657676 1.30777,6.301014 2.61551,-0.356661 5.46879,-7.6087697 2.7344,-7.7276577 -2.7344,-0.118893 -1.54553,8.2032067 1.54553,6.6576747 3.09106,-1.545531 4.75548,-7.9654317 2.13997,-7.9654317 -2.61552,0 -1.78331,7.9654317 0.95109,8.0843207 2.73441,0.118886 5.23103,-8.9165307 2.13997,-8.3220947 -3.09106,0.594434 0.95109,8.6787547 2.85329,6.8954477 1.9022,-1.783306 -0.47555,-3.923273 -0.47555,-3.923273"
       id="path3858-1"
       inkscape:connector-curvature="0" />
    <path
       style="fill:none;stroke:#000000;stroke-width:0.5;stroke-linecap:butt;stroke-linejoin:miter;stroke-miterlimit:4;stroke-opacity:1;stroke-dasharray:none;display:inline"
       d="m 215.2282,-9.7248337 c 0,0 -4.99325,-0.7133233 -8.79764,-0.237775 -3.80439,0.475549 -10.22429,2.734404 -10.22429,2.734404"
       id="path3862-7"
       inkscape:connector-curvature="0" />
    <path
       style="fill:none;stroke:#000000;stroke-width:0.5;stroke-linecap:butt;stroke-linejoin:miter;stroke-miterlimit:4;stroke-opacity:1;stroke-dasharray:none;display:inline"
       d="m 213.56378,-6.8715447 c 0,0 -4.75548,0.713322 -8.32209,1.902192 -3.56661,1.18887 -6.65768,3.8043857 -6.65768,3.8043857"
       id="path3864-3"
       inkscape:connector-curvature="0" />
    <path
       style="fill:none;stroke:#000000;stroke-width:0.5;stroke-linecap:butt;stroke-linejoin:miter;stroke-miterlimit:4;stroke-opacity:1;stroke-dasharray:none;display:inline"
       d="m 215.10931,-3.7804827 c 0,0 -5.34991,1.545533 -7.60877,3.0910647 -2.25885,1.54553 -5.70658,4.636596 -5.70658,4.636596"
       id="path3866-8"
       inkscape:connector-curvature="0" />
    <path
       style="fill:none;stroke:#000000;stroke-width:0.5;stroke-linecap:butt;stroke-linejoin:miter;stroke-miterlimit:4;stroke-opacity:1;stroke-dasharray:none;display:inline"
       d="m 237.46007,-13.053668 c 0,0 4.27994,-1.069987 7.371,-1.188872 3.09106,-0.118896 6.30101,0.356655 6.30101,0.356655"
       id="path3870-3"
       inkscape:connector-curvature="0" />
    <path
       style="fill:none;stroke:#000000;stroke-width:0.5;stroke-linecap:butt;stroke-linejoin:miter;stroke-miterlimit:4;stroke-opacity:1;stroke-dasharray:none;display:inline"
       d="m 236.62787,-9.3681727 c 0,0 5.34992,-0.237775 8.79764,0.356662 3.44773,0.594433 7.25211,1.664417 7.25211,1.664417"
       id="path3872-6"
       inkscape:connector-curvature="0" />
    <path
       style="fill:none;stroke:#000000;stroke-width:0.5;stroke-linecap:butt;stroke-linejoin:miter;stroke-miterlimit:4;stroke-opacity:1;stroke-dasharray:none;display:inline"
       d="m 236.98453,-6.3959957 c 0,0 7.01434,0.237773 9.39208,1.069983 2.37774,0.832209 7.84654,3.5666097 7.84654,3.5666097"
       id="path3874-0"
       inkscape:connector-curvature="0" />
    <path
       style="fill:none;stroke:#000000;stroke-width:0.5;stroke-linecap:butt;stroke-linejoin:miter;stroke-miterlimit:4;stroke-opacity:1;stroke-dasharray:none;display:inline"
       d="m 223.07474,-9.3681727 c 0,0 -1.06997,4.04216 1.78331,3.328838 2.85329,-0.713324 2.85329,-4.3988223 2.61551,-5.7065773 -0.23777,-1.307756 -0.23777,-1.307756 -0.23777,-1.307756"
       id="path3880-99"
       inkscape:connector-curvature="0" />
    <path
       style="fill:none;stroke:#000000;stroke-width:0.5;stroke-linecap:butt;stroke-linejoin:miter;stroke-miterlimit:4;stroke-opacity:1;stroke-dasharray:none;display:inline"
       d="m 232.11016,-11.389258 c 0,0 1.06999,4.1610533 -1.42664,4.6365993 -2.49664,0.475548 -3.18956,-4.9380383 -3.42733,-6.1269103"
       id="path3882-0"
       inkscape:connector-curvature="0"
       sodipodi:nodetypes="csc" />
    <path
       style="fill:#000000;fill-opacity:1;stroke:#000000;stroke-width:0.5;stroke-linecap:butt;stroke-linejoin:miter;stroke-miterlimit:4;stroke-opacity:1;stroke-dasharray:none;display:inline"
       d="m 221.55707,-13.452621 c 0,0 -2.56401,0.378307 -3.23654,-1.975546 -0.67252,-2.353842 0.3783,-3.782954 0.3783,-3.782954 0,0 3.15247,-0.672533 3.78296,2.143673 0.6305,2.816207 -0.92472,3.614827 -0.92472,3.614827 z"
       id="path3884-3"
       inkscape:connector-curvature="0" />
    <path
       style="fill:#000000;fill-opacity:1;stroke:#000000;stroke-width:0.5;stroke-linecap:butt;stroke-linejoin:miter;stroke-miterlimit:4;stroke-opacity:1;stroke-dasharray:none;display:inline"
       d="m 229.29113,-21.102609 c 0,0 -1.38709,0.420336 -0.5044,3.488739 0.8827,3.068404 3.23654,2.269772 4.11923,2.017576 0.88269,-0.252197 -0.50439,-3.867024 -0.50439,-3.867024 0,0 -0.33627,-1.68132 -1.63928,-1.68132 -1.30303,0 -1.47116,0.04204 -1.47116,0.04204 z"
       id="path3886-5"
       inkscape:connector-curvature="0" />
    <path
       style="fill:none;stroke:#000000;stroke-width:0.5;stroke-linecap:butt;stroke-linejoin:miter;stroke-miterlimit:4;stroke-opacity:1;stroke-dasharray:none;display:inline"
       d="m 251.99854,-12.214475 c 0,0 1.01015,-6.818529 4.29314,-6.313453 3.283,0.505076 3.283,5.934646 0.88389,6.439722 -2.39911,0.505077 -1.89404,-9.596449 3.91434,-10.101525 5.80838,-0.505076 3.40926,11.869292 1.51523,11.995561 -1.89404,0.12627 -4.29315,-10.73287 2.0203,-9.722718 6.31346,1.010153 4.67196,8.586297 3.40927,8.712566 -1.26269,0.126269 -2.65165,-7.323606 2.90419,-7.323606 5.55584,0 2.52538,8.7125663 1.38896,9.3439113 -1.13643,0.631345 -4.41942,-10.4803333 4.92449,-2.9041893 9.34391,7.5761443 -2.77792,9.4701803 -4.04061,6.4397233 -1.26269,-3.030458 5.3033,-4.04061 5.55584,2.399112 0.25254,6.4397227 -4.41942,4.5456867 -5.17703,2.3991117 -0.75762,-2.1465737 9.72272,0.505077 6.69226,4.545687 -3.03046,4.04061 -6.56599,3.914341 -7.19734,0.505076 -0.63134,-3.409265 9.26776,-1.06251 7.95495,2.146574 -1.13642,2.77792 -1.89403,2.020305 -1.89403,2.020305"
       id="path3157-5"
       inkscape:connector-curvature="0"
       sodipodi:nodetypes="csssssssssssssssc" />
    <path
       style="fill:none;stroke:#000000;stroke-width:0.5;stroke-linecap:butt;stroke-linejoin:miter;stroke-miterlimit:4;stroke-opacity:1;stroke-dasharray:none;display:inline"
       d="m 225.88114,6.978424 c 0,0 -2.39911,7.954951 1.2627,9.217642 3.6618,1.26269 8.33375,-6.944799 4.16687,-6.81853 -4.16687,0.126269 -3.53553,6.565991 0.12627,8.08122 3.66181,1.515229 7.82869,-5.050763 5.05077,-6.313453 -2.77792,-1.262691 -5.68211,7.449875 2.27284,8.460027 7.95495,1.010153 9.34391,-9.47018 5.05076,-9.091373 -4.29315,0.378808 -2.90419,9.470181 1.89404,9.343911 4.79822,-0.126269 10.98541,-8.965103 4.79822,-8.838834 -6.18718,0.126269 -1.76776,8.08122 3.283,7.576144 5.05076,-0.505076 9.34391,-8.838835 3.6618,-9.343911 -5.68211,-0.505076 -3.15673,10.732871 3.53554,9.722718 6.69226,-1.010153 8.58629,-10.606602 4.16687,-9.975256 -4.41941,0.631345 0.50508,12.248099 5.30331,8.965103 4.79822,-3.282995 2.39911,-10.606601 -0.50508,-8.838834 -2.90419,1.767767 2.65165,6.565991 4.29315,4.04061 1.6415,-2.525381 2.0203,-3.788072 2.0203,-3.788072"
       id="path3927-5"
       inkscape:connector-curvature="0" />
    <path
       style="fill:none;stroke:#000000;stroke-width:0.5;stroke-linecap:butt;stroke-linejoin:miter;stroke-miterlimit:4;stroke-opacity:1;stroke-dasharray:none;display:inline"
       d="m 232.06174,18.096962 c 0,0 -2.81023,5.384872 -2.52002,7.200331 0.29021,1.815452 3.22114,-4.572331 3.22114,-4.572331 0,0 -2.3285,4.55259 -1.5264,5.285038 0.8021,0.732448 2.97041,-4.602504 2.97041,-4.602504 0,0 -2.21822,4.693037 -0.82413,4.733662 1.3941,0.04062 2.33894,-5.695959 2.33894,-5.695959"
       id="path3929-7"
       inkscape:connector-curvature="0" />
    <path
       style="fill:none;stroke:#000000;stroke-width:0.5;stroke-linecap:butt;stroke-linejoin:miter;stroke-miterlimit:4;stroke-opacity:1;stroke-dasharray:none;display:inline"
       d="m 269.29494,17.831464 c 0,0 1.8619,5.043842 0.79334,6.776927 -0.57143,0.926795 -1.32987,-5.059606 -1.67995,-5.186251 0,0 1.58798,6.302477 0.0938,5.945982 -0.7817,-0.186502 -1.2532,-5.344233 -1.4282,-5.206305 0,0 1.58416,5.573891 0.32546,5.674184 -1.2587,0.100294 -1.93168,-5.166191 -1.93168,-5.166191"
       id="path3931-2"
       inkscape:connector-curvature="0"
       sodipodi:nodetypes="cscscsc" />
  </g>
</svg>
