<?xml version="1.0" encoding="UTF-8" standalone="no"?>
<!-- Created with Inkscape (http://www.inkscape.org/) -->

<svg
   xmlns:dc="http://purl.org/dc/elements/1.1/"
   xmlns:cc="http://creativecommons.org/ns#"
   xmlns:rdf="http://www.w3.org/1999/02/22-rdf-syntax-ns#"
   xmlns:svg="http://www.w3.org/2000/svg"
   xmlns="http://www.w3.org/2000/svg"
   xmlns:sodipodi="http://sodipodi.sourceforge.net/DTD/sodipodi-0.dtd"
   xmlns:inkscape="http://www.inkscape.org/namespaces/inkscape"
   width="48"
   height="48"
   id="svg2"
   version="1.1"
   inkscape:version="0.48.4 r9939"
   sodipodi:docname="agogo-sketch.svg"
   inkscape:export-filename="/home/johnlinp/coding/leisure/agogo-chase/icons/agogochase-48.png"
   inkscape:export-xdpi="90"
   inkscape:export-ydpi="90">
  <defs
     id="defs4" />
  <sodipodi:namedview
     id="base"
     pagecolor="#ffffff"
     bordercolor="#666666"
     borderopacity="1.0"
     inkscape:pageopacity="1"
     inkscape:pageshadow="2"
     inkscape:zoom="3.959798"
     inkscape:cx="-13.536645"
     inkscape:cy="23.779015"
     inkscape:document-units="px"
     inkscape:current-layer="layer2"
     showgrid="false"
     inkscape:window-width="1360"
     inkscape:window-height="744"
     inkscape:window-x="0"
     inkscape:window-y="24"
     inkscape:window-maximized="1" />
  <metadata
     id="metadata7">
    <rdf:RDF>
      <cc:Work
         rdf:about="">
        <dc:format>image/svg+xml</dc:format>
        <dc:type
           rdf:resource="http://purl.org/dc/dcmitype/StillImage" />
        <dc:title></dc:title>
      </cc:Work>
    </rdf:RDF>
  </metadata>
  <g
     inkscape:groupmode="layer"
     id="layer2"
     inkscape:label="fills">
    <path
       sodipodi:type="arc"
       style="fill:#a7a1a7;fill-opacity:0.26940637;stroke:none;display:inline"
       id="path5056"
       sodipodi:cx="519.10712"
       sodipodi:cy="368.03571"
       sodipodi:rx="55.892857"
       sodipodi:ry="55.892857"
       d="m 574.99997,368.03571 a 55.892857,55.892857 0 1 1 -111.78571,0 55.892857,55.892857 0 1 1 111.78571,0 z"
       transform="matrix(0.35660072,0,0,0.35660072,-157.63544,-106.52175)" />
    <path
       sodipodi:type="arc"
       style="fill:#d4aa00;fill-opacity:0.5148936;stroke:none;display:inline"
       id="path5056-7"
       sodipodi:cx="519.10712"
       sodipodi:cy="368.03571"
       sodipodi:rx="55.892857"
       sodipodi:ry="55.892857"
       d="m 574.99997,368.03571 a 55.892857,55.892857 0 1 1 -111.78571,0 55.892857,55.892857 0 1 1 111.78571,0 z"
       transform="matrix(0.19368088,0,0,0.19368088,-87.124247,-48.657769)" />
    <path
       sodipodi:type="arc"
       style="fill:#303331;fill-opacity:0.59574465;stroke:none;display:inline"
       id="path5056-7-0-2"
       sodipodi:cx="519.10712"
       sodipodi:cy="368.03571"
       sodipodi:rx="55.892857"
       sodipodi:ry="55.892857"
       d="m 574.99997,368.03571 a 55.892857,55.892857 0 1 1 -111.78571,0 55.892857,55.892857 0 1 1 111.78571,0 z"
       transform="matrix(0.13465197,0,0,0.13580255,-31.636195,-36.690672)" />
  </g>
  <g
     inkscape:groupmode="layer"
     id="layer1"
     inkscape:label="strokes"
     style="display:inline">
    <path
       style="fill:none;stroke:#000000;stroke-width:0.5;stroke-linecap:butt;stroke-linejoin:miter;stroke-miterlimit:4;stroke-opacity:1;stroke-dasharray:none"
       d="m 15.714286,18.446429 c -2.012882,0 -4.234395,-8.9396779 -0.803572,-9.3750003 2.492061,-0.316207 3.527411,7.3287643 2.5,7.4999993 -0.15911,1.591108 -4.150168,-7.5187094 0.178572,-9.0178563 4.190722,-1.4513479 3.897758,10.0584733 2.857142,9.0178573 C 19.347573,16.205144 17.210603,4.9868681 22.5,5.3214288 27.586166,5.6431349 24.464286,16.125 24.464286,16.125 24.106653,17.734347 20.537646,6.6230894 27.053571,5.7678574 33.567278,4.9129165 28.818614,15.522058 27.499999,16.125 c -1.426031,0.89127 -2.07981,-10.3287535 3.035715,-9.4642855 5.066082,0.8561126 1.157454,10.6204355 0.267857,9.3750005 0,0 -2.512159,-8.0850889 2.5,-7.6785719 5.330746,0.4323563 2.973825,9.2213489 -0.08929,10.1785709"
       id="path3852"
       inkscape:connector-curvature="0"
       sodipodi:nodetypes="cscscscscscsc" />
    <path
       style="fill:none;stroke:#000000;stroke-width:0.5;stroke-linecap:butt;stroke-linejoin:miter;stroke-miterlimit:4;stroke-opacity:1;stroke-dasharray:none"
       d="m 13.214286,22.642857 c 0,0 -5.6250003,-3.214285 -5.714286,3.214286 -0.089286,6.428571 6.071428,1.160714 6.071428,1.160714 1.192053,-2.384106 -8.3300242,-4.597286 -7.2321423,2.767857 0.994944,6.674584 7.5310223,1.201877 6.5178573,1.607143 1.894174,-0.189417 -5.2059718,-3.971549 -5.7142859,1.517857 -0.5520209,5.961407 5.7589809,3.024671 5.0892859,1.517858 0.460731,0.153577 -5.5656897,-1.795706 -3.9285716,1.696428 1.4439429,3.128954 4.0012446,1.567923 5.3571426,-0.08929"
       id="path3854"
       inkscape:connector-curvature="0"
       sodipodi:nodetypes="cscscsccc" />
    <path
       style="fill:none;stroke:#000000;stroke-width:0.5;stroke-linecap:butt;stroke-linejoin:miter;stroke-miterlimit:4;stroke-opacity:1;stroke-dasharray:none"
       d="m 34.285714,20.857143 c 0,0 1.181455,-8.238111 6.517857,-3.571429 5.36533,4.69198 -4.081732,6.581036 -4.285714,5.357143 -2.045924,-2.045924 4.537082,-7.371272 4.910714,0.08929 -6.977953,10.039801 -7.630399,-3.945203 0.535715,3.482143 1.157912,5.396296 -6.071429,2.678572 -6.071429,2.678572 -1.239154,-0.536929 1.693331,-4.485981 5.714286,1.517856 2.052139,3.064124 -4.821429,1.250001 -4.821429,1.250001 -2.006938,0.0044 1.427661,-3.097731 3.75,-0.803572 5.324982,5.260366 -3.918331,3.12188 -4.107143,2.767857 -2.768372,-0.615194 4.662884,-2.005691 5.535715,1.607143 0.922392,3.81798 -4.408634,0.473648 -4.375,0.625"
       id="path3856"
       inkscape:connector-curvature="0"
       sodipodi:nodetypes="csccccscscsc" />
    <path
       style="fill:none;stroke:#000000;stroke-width:0.5;stroke-linecap:butt;stroke-linejoin:miter;stroke-miterlimit:4;stroke-opacity:1;stroke-dasharray:none"
       d="m 16.339286,35.142857 c 0,0 -1.875,5.089286 0.625,5.982143 2.5,0.892857 6.339285,-4.285714 3.928571,-5 -2.410714,-0.714286 -2.5,5.267857 -0.446429,5.535714 2.053572,0.267857 4.107143,-6.25 2.857143,-6.607142 -1.25,-0.357143 -1.071428,5.357142 0.714286,5.446428 1.785714,0.08929 3.928571,-4.464286 2.142857,-4.821429 -1.785714,-0.357142 -0.982143,5 0.982143,4.732143 1.964286,-0.267857 4.107143,-5.714285 2.053571,-5.803571 -2.053571,-0.08929 -1.160714,6.160714 1.160715,5 C 32.678571,38.446429 33.928571,33.625 31.964286,33.625 30,33.625 30.625,39.607143 32.678571,39.696429 34.732143,39.785714 36.607143,33 34.285714,33.446429 31.964286,33.892857 35,39.964286 36.428571,38.625 37.857143,37.285714 36.071428,35.678571 36.071428,35.678571"
       id="path3858"
       inkscape:connector-curvature="0" />
    <path
       style="fill:none;stroke:#000000;stroke-width:0.5;stroke-linecap:butt;stroke-linejoin:miter;stroke-miterlimit:4;stroke-opacity:1;stroke-dasharray:none"
       d="m 16.428571,29.428572 c 0,0 -3.75,-0.535715 -6.6071425,-0.178572 -2.8571428,0.357143 -7.6785714,2.053572 -7.6785714,2.053572"
       id="path3862"
       inkscape:connector-curvature="0" />
    <path
       style="fill:none;stroke:#000000;stroke-width:0.5;stroke-linecap:butt;stroke-linejoin:miter;stroke-miterlimit:4;stroke-opacity:1;stroke-dasharray:none"
       d="m 15.178571,31.571429 c 0,0 -3.571428,0.535714 -6.2499996,1.428571 -2.6785714,0.892857 -5,2.857143 -5,2.857143"
       id="path3864"
       inkscape:connector-curvature="0" />
    <path
       style="fill:none;stroke:#000000;stroke-width:0.5;stroke-linecap:butt;stroke-linejoin:miter;stroke-miterlimit:4;stroke-opacity:1;stroke-dasharray:none"
       d="m 16.339286,33.892857 c 0,0 -4.017857,1.160715 -5.714286,2.321429 C 8.9285714,37.375 6.3392857,39.696429 6.3392857,39.696429"
       id="path3866"
       inkscape:connector-curvature="0" />
    <path
       style="fill:none;stroke:#000000;stroke-width:0.5;stroke-linecap:butt;stroke-linejoin:miter;stroke-miterlimit:4;stroke-opacity:1;stroke-dasharray:none"
       d="m 33.125,26.928572 c 0,0 3.214286,-0.803572 5.535714,-0.892858 2.321429,-0.08929 4.732143,0.267858 4.732143,0.267858"
       id="path3870"
       inkscape:connector-curvature="0" />
    <path
       style="fill:none;stroke:#000000;stroke-width:0.5;stroke-linecap:butt;stroke-linejoin:miter;stroke-miterlimit:4;stroke-opacity:1;stroke-dasharray:none"
       d="m 32.5,29.696429 c 0,0 4.017857,-0.178572 6.607143,0.267857 2.589285,0.446428 5.446428,1.25 5.446428,1.25"
       id="path3872"
       inkscape:connector-curvature="0" />
    <path
       style="fill:none;stroke:#000000;stroke-width:0.5;stroke-linecap:butt;stroke-linejoin:miter;stroke-miterlimit:4;stroke-opacity:1;stroke-dasharray:none"
       d="m 32.767857,31.928572 c 0,0 5.267857,0.178571 7.053571,0.803571 1.785715,0.625 5.892857,2.678571 5.892857,2.678571"
       id="path3874"
       inkscape:connector-curvature="0" />
    <path
       style="fill:none;stroke:#000000;stroke-width:0.5;stroke-linecap:butt;stroke-linejoin:miter;stroke-miterlimit:4;stroke-opacity:1;stroke-dasharray:none"
       d="m 22.321428,29.696429 c 0,0 -0.803571,3.035714 1.339286,2.5 2.142857,-0.535715 2.142857,-3.303572 1.964286,-4.285715 -0.178572,-0.982142 -0.178572,-0.982142 -0.178572,-0.982142"
       id="path3880"
       inkscape:connector-curvature="0" />
    <path
       style="fill:none;stroke:#000000;stroke-width:0.5;stroke-linecap:butt;stroke-linejoin:miter;stroke-miterlimit:4;stroke-opacity:1;stroke-dasharray:none"
       d="m 29.107143,28.178572 c 0,0 0.803571,3.125 -1.071429,3.482142 -1.875,0.357143 -2.395395,-3.70853 -2.573966,-4.601387"
       id="path3882"
       inkscape:connector-curvature="0"
       sodipodi:nodetypes="csc" />
    <path
       style="fill:#000000;fill-opacity:1;stroke:#000000;stroke-width:0.5;stroke-linecap:butt;stroke-linejoin:miter;stroke-miterlimit:4;stroke-opacity:1;stroke-dasharray:none"
       d="m 21.181636,26.62896 c 0,0 -1.925603,0.284106 -2.430679,-1.483661 -0.505077,-1.767767 0.284105,-2.841054 0.284105,-2.841054 0,0 2.367545,-0.505076 2.841054,1.60993 0.473509,2.115007 -0.69448,2.714785 -0.69448,2.714785 z"
       id="path3884"
       inkscape:connector-curvature="0" />
    <path
       style="fill:#000000;fill-opacity:1;stroke:#000000;stroke-width:0.5;stroke-linecap:butt;stroke-linejoin:miter;stroke-miterlimit:4;stroke-opacity:1;stroke-dasharray:none"
       d="m 26.990013,20.883718 c 0,0 -1.04172,0.315672 -0.378807,2.620083 0.662913,2.30441 2.43068,1.704632 3.093592,1.515229 0.662913,-0.189404 -0.378807,-2.904189 -0.378807,-2.904189 0,0 -0.252538,-1.262691 -1.231123,-1.262691 -0.978586,0 -1.104855,0.03157 -1.104855,0.03157 z"
       id="path3886"
       inkscape:connector-curvature="0" />
  </g>
</svg>
