<?xml version="1.0" encoding="UTF-8" standalone="no"?>
<!-- Created with Inkscape (http://www.inkscape.org/) -->

<svg
   xmlns:dc="http://purl.org/dc/elements/1.1/"
   xmlns:cc="http://creativecommons.org/ns#"
   xmlns:rdf="http://www.w3.org/1999/02/22-rdf-syntax-ns#"
   xmlns:svg="http://www.w3.org/2000/svg"
   xmlns="http://www.w3.org/2000/svg"
   xmlns:sodipodi="http://sodipodi.sourceforge.net/DTD/sodipodi-0.dtd"
   xmlns:inkscape="http://www.inkscape.org/namespaces/inkscape"
   width="120"
   height="192"
   id="svg2"
   version="1.1"
   inkscape:version="0.48.4 r9939"
   sodipodi:docname="chair.svg"
   inkscape:export-filename="/home/johnlinp/coding/leisure/agogo-chase/images/agogo-running-left.png"
   inkscape:export-xdpi="90"
   inkscape:export-ydpi="90">
  <defs
     id="defs4" />
  <sodipodi:namedview
     id="base"
     pagecolor="#ffffff"
     bordercolor="#666666"
     borderopacity="1.0"
     inkscape:pageopacity="1"
     inkscape:pageshadow="2"
     inkscape:zoom="2.8"
     inkscape:cx="47.362278"
     inkscape:cy="102.42191"
     inkscape:document-units="px"
     inkscape:current-layer="layer2"
     showgrid="false"
     inkscape:window-width="1360"
     inkscape:window-height="744"
     inkscape:window-x="0"
     inkscape:window-y="24"
     inkscape:window-maximized="1" />
  <metadata
     id="metadata7">
    <rdf:RDF>
      <cc:Work
         rdf:about="">
        <dc:format>image/svg+xml</dc:format>
        <dc:type
           rdf:resource="http://purl.org/dc/dcmitype/StillImage" />
        <dc:title />
      </cc:Work>
    </rdf:RDF>
  </metadata>
  <g
     inkscape:groupmode="layer"
     id="layer2"
     inkscape:label="fills"
     transform="translate(0,144)">
    <path
       sodipodi:type="arc"
       style="fill:#784421;fill-opacity:0.5148936;stroke:none;display:inline"
       id="path5056-7"
       sodipodi:cx="519.10712"
       sodipodi:cy="368.03571"
       sodipodi:rx="55.892857"
       sodipodi:ry="55.892857"
       d="m 574.99997,368.03571 c 0,30.86877 -25.02408,55.89285 -55.89285,55.89285 -30.86878,0 -55.89286,-25.02408 -55.89286,-55.89285 0,-30.86878 25.02408,-55.89286 55.89286,-55.89286 30.86877,0 55.89285,25.02408 55.89285,55.89286 z"
       transform="matrix(0.45351273,0,0,0.45351273,-192.35692,-272.05344)" />
    <path
       sodipodi:type="arc"
       style="fill:#a05a2c;fill-opacity:0.5148936;stroke:none;display:inline"
       id="path5056-7-6"
       sodipodi:cx="519.10712"
       sodipodi:cy="368.03571"
       sodipodi:rx="55.892857"
       sodipodi:ry="55.892857"
       d="m 574.99997,368.03571 c 0,30.86877 -25.02408,55.89285 -55.89285,55.89285 -30.86878,0 -55.89286,-25.02408 -55.89286,-55.89285 0,-30.86878 25.02408,-55.89286 55.89286,-55.89286 30.86877,0 55.89285,25.02408 55.89285,55.89286 z"
       transform="matrix(0.65660712,0,0,0.65660712,-260.14183,-344.97597)" />
    <path
       sodipodi:type="arc"
       style="fill:#d38d5f;fill-opacity:0.5148936;stroke:none;display:inline"
       id="path5056-7-6-5"
       sodipodi:cx="519.10712"
       sodipodi:cy="368.03571"
       sodipodi:rx="55.892857"
       sodipodi:ry="55.892857"
       d="m 574.99997,368.03571 a 55.892857,55.892857 0 1 1 -111.78571,0 55.892857,55.892857 0 1 1 111.78571,0 z"
       transform="matrix(0.57034513,0,0,0.57034513,-255.17736,-278.87166)" />
  </g>
  <g
     inkscape:groupmode="layer"
     id="layer1"
     inkscape:label="strokes"
     style="display:inline"
     transform="translate(0,144)"
     sodipodi:insensitive="true">
    <path
       style="fill:none;stroke:#000000;stroke-width:0.5;stroke-linecap:butt;stroke-linejoin:miter;stroke-miterlimit:4;stroke-opacity:1;stroke-dasharray:none"
       d="m 16.99832,-121.32978 c -0.673421,-11.01104 92.64226,-9.0253 92.27769,0.44447 -0.0515,10.65163 -92.582405,10.1427 -92.27769,-0.44447 z"
       id="path3012"
       inkscape:connector-curvature="0"
       sodipodi:nodetypes="ccc" />
    <path
       style="fill:none;stroke:#000000;stroke-width:0.5;stroke-linecap:butt;stroke-linejoin:miter;stroke-miterlimit:4;stroke-opacity:1;stroke-dasharray:none"
       d="m 16.875,22.178571 -0.446428,9.464285 c 0,0 16.750489,7.539147 45.714285,7.5 29.307379,-0.03961 46.428573,-7.142857 46.428573,-7.142857 l 0.625,-8.482142"
       id="path3782"
       inkscape:connector-curvature="0"
       transform="translate(0,-144)"
       sodipodi:nodetypes="ccscc" />
    <path
       style="fill:none;stroke:#000000;stroke-width:0.5;stroke-linecap:butt;stroke-linejoin:miter;stroke-miterlimit:4;stroke-opacity:1;stroke-dasharray:none"
       d="M 26.390235,34.921278 11.111678,180.88832 c 0,0 0.505076,2.52538 3.030458,3.03046 2.525381,0.50508 5.050762,-1.01015 5.050762,-1.01015 L 32.57742,36.310238"
       id="path3784"
       inkscape:connector-curvature="0"
       sodipodi:nodetypes="ccscc"
       transform="translate(0,-144)" />
    <path
       style="fill:none;stroke:#000000;stroke-width:0.5;stroke-linecap:butt;stroke-linejoin:miter;stroke-miterlimit:4;stroke-opacity:1;stroke-dasharray:none"
       d="M 89.903577,36.941584 99.500026,181.3934 c 0,0 -1.010152,2.0203 4.545684,1.51523 5.55584,-0.50508 4.54569,-4.04061 4.54569,-4.04061 L 97.353452,35.300086"
       id="path3786"
       inkscape:connector-curvature="0"
       transform="translate(0,-144)"
       sodipodi:nodetypes="ccscc" />
    <path
       style="fill:none;stroke:#000000;stroke-width:0.5;stroke-linecap:butt;stroke-linejoin:miter;stroke-miterlimit:4;stroke-opacity:1;stroke-dasharray:none"
       d="M 40.279833,37.699198 30.304576,156.13958 c 0,0 0,1.51523 2.525382,2.02031 2.525381,0.50508 5.050763,-1.01015 5.050763,-1.01015 L 46.214479,38.330543"
       id="path3788"
       inkscape:connector-curvature="0"
       transform="translate(0,-144)"
       sodipodi:nodetypes="ccscc" />
    <path
       style="fill:none;stroke:#000000;stroke-width:0.5;stroke-linecap:butt;stroke-linejoin:miter;stroke-miterlimit:4;stroke-opacity:1;stroke-dasharray:none"
       d="m 76.205602,-105.54319 4.04061,114.65232 c 0,0 1.515229,2.0203 4.040611,1.01015 2.525381,-1.01015 2.020305,-3.53553 2.020305,-3.53553 l -4.04061,-112.63201"
       id="path3790"
       inkscape:connector-curvature="0" />
  </g>
</svg>
